<svg xmlns="http://www.w3.org/2000/svg" id="prefix__align-left" width="48" height="48" viewBox="0 0 48 48"> <defs> <style> .prefix__cls-2{fill:#fff} </style> </defs> <g id="prefix__align-left-2" data-name="align-left" transform="translate(0 -.3)"> <path id="prefix__Path_193" d="M33 12.3H9a.945.945 0 0 1-1-1 .945.945 0 0 1 1-1h24a.945.945 0 0 1 1 1 .945.945 0 0 1-1 1z" class="prefix__cls-2" data-name="Path 193"/> <path id="prefix__Path_194" d="M39 18.6H9a1 1 0 0 1 0-2h30a1 1 0 0 1 0 2z" class="prefix__cls-2" data-name="Path 194"/> <path id="prefix__Path_195" d="M39 31.3H9a1 1 0 1 1 0-2h30a1 1 0 0 1 0 2z" class="prefix__cls-2" data-name="Path 195"/> <path id="prefix__Path_196" d="M33 25H9a1 1 0 0 1 0-2h24a1 1 0 0 1 0 2z" class="prefix__cls-2" data-name="Path 196"/> <path id="prefix__Path_197" d="M33 37.6H9a1 1 0 0 1 0-2h24a1 1 0 0 1 0 2z" class="prefix__cls-2" data-name="Path 197"/> </g></svg>