<svg xmlns="http://www.w3.org/2000/svg" id="prefix__align-justify" width="48" height="48" viewBox="0 0 48 48"> <defs> <style> .prefix__cls-2{fill:#fff} </style> </defs> <g id="prefix__align-justify-2" data-name="align-justify" transform="translate(0 -.3)"> <path id="prefix__Path_188" d="M39 12.3H9a.945.945 0 0 1-1-1 .945.945 0 0 1 1-1h30a.945.945 0 0 1 1 1 .945.945 0 0 1-1 1z" class="prefix__cls-2" data-name="Path 188"/> <path id="prefix__Path_189" d="M39 18.6H9a1 1 0 0 1 0-2h30a1 1 0 0 1 0 2z" class="prefix__cls-2" data-name="Path 189"/> <path id="prefix__Path_190" d="M39 31.3H9a1 1 0 1 1 0-2h30a1 1 0 0 1 0 2z" class="prefix__cls-2" data-name="Path 190"/> <path id="prefix__Path_191" d="M39 25H9a1 1 0 0 1 0-2h30a1 1 0 0 1 0 2z" class="prefix__cls-2" data-name="Path 191"/> <path id="prefix__Path_192" d="M39 37.6H9a1 1 0 0 1 0-2h30a1 1 0 0 1 0 2z" class="prefix__cls-2" data-name="Path 192"/> </g></svg>