<svg xmlns="http://www.w3.org/2000/svg" width="48" height="48" viewBox="0 0 48 48"> <path fill="#FFF" fill-rule="evenodd" d="M33 24.7c.6 0 1 .4 1 1v5.9h5.4c.5 0 1 .4 1 1s-.4 1-1 1H34v5.8c0 .6-.4 1-1 1s-1-.4-1-1v-5.8h-5.4c-.6 0-1-.4-1-1s.4-1 1-1H32v-5.9c0-.6.4-1 1-1zm-13.3 6.9c1.5 0 2.7 1.2 2.7 2.7v3.4c0 1.5-1.2 2.7-2.7 2.7h-9.4c-1.5 0-2.7-1.2-2.7-2.7v-3.4c0-1.5 1.2-2.7 2.7-2.7zm0 2h-9.4c-.4 0-.7.3-.7.7v3.4c0 .4.3.7.7.7h9.4c.4 0 .7-.3.7-.7v-3.4c0-.4-.3-.7-.7-.7zm0-26c1.5 0 2.7 1.2 2.7 2.7v15.4c0 1.5-1.2 2.7-2.7 2.7h-9.4c-1.5 0-2.7-1.2-2.7-2.7V10.3c0-1.5 1.2-2.7 2.7-2.7zm0 2h-9.4c-.4 0-.7.3-.7.7v15.4c0 .4.3.7.7.7h9.4c.4 0 .7-.3.7-.7V10.3c0-.4-.3-.7-.7-.7zm18-2c1.4 0 2.7 1.2 2.7 2.7v8.6c0 1.5-1.2 2.7-2.7 2.7h-9.4c-1.5 0-2.7-1.2-2.7-2.7v-8.6c0-1.5 1.2-2.7 2.7-2.7zm0 2h-9.4c-.4 0-.7.3-.7.7v8.6c0 .4.3.7.7.7h9.4c.4 0 .7-.3.7-.7v-8.6c0-.4-.3-.7-.7-.7z"/></svg>