<svg xmlns="http://www.w3.org/2000/svg" width="48" height="48" viewBox="0 0 48 48"> <path fill="#FFF" fill-rule="evenodd" d="M12.8 38c-.4 0-.9-.2-1.2-.5-1.9-2.2-3.3-5.8-3.8-9.1-.4-3-.3-7.4 2.7-10.9 8.2-9.9 19.4-5.9 22.6-4.4l.9-1.2c.6-.9 1.7-1.3 2.8-1.2 1.1.2 2 .9 2.3 2l3.2 9.9c.3.9.1 1.9-.4 2.7-.6.8-1.5 1.2-2.4 1.2H29.1c-1.1 0-2.1-.6-2.6-1.6s-.4-2.1.2-3l.9-1.2c-2.7-.5-7.8-.6-11.4 4.3-2.6 3.6-2.9 8.2-2 11.2.2.7-.1 1.4-.7 1.8-.3-.1-.5 0-.7 0zm11.1-25.1c-3.8 0-8.2 1.3-11.9 5.7-3.9 4.7-2.4 11.5-.3 15.5-.3-3.1.3-7 2.8-10.4 4.4-6.1 10.8-5.6 13.4-5.1.7.1 1.3.6 1.5 1.2.3.7.1 1.4-.3 1.9l-.9 1.2c-.3.4-.1.8-.1.9.1.1.3.5.8.5h10.4c.3 0 .6-.1.8-.4.2-.3.2-.6.1-.9L37 13.1c-.2-.5-.6-.6-.7-.6-.2 0-.6 0-.9.4l-.9 1.2c-.6.7-1.6 1-2.4.6-1.3-.6-4.4-1.8-8.2-1.8z"/></svg>