<svg xmlns="http://www.w3.org/2000/svg" width="48" height="48" viewBox="0 0 48 48"> <path fill="#FFF" fill-rule="evenodd" d="M25.3 5c1.5 0 2.7 1.1 3 2.7l.3 2c2 .6 3.8 1.7 5.4 3.1l2.1-.8c1.4-.5 2.9 0 3.7 1.3l1.3 2.3c.7 1.3.4 2.9-.7 3.8l-1.8 1.4c.3 1.1.4 2.2.4 3.2s-.1 2.1-.3 3.1l1.8 1.5c1.1.9 1.4 2.5.7 3.8l-1.3 2.3c-.7 1.3-2.3 1.8-3.7 1.3l-2.2-.9c-1.6 1.4-3.4 2.5-5.4 3.1l-.4 2.2c-.2 1.5-1.4 2.6-2.9 2.6h-2.6c-1.5 0-2.7-1.1-3-2.7l-.3-2c-2-.6-3.8-1.7-5.4-3.1l-2.1.8c-1.4.5-2.9 0-3.7-1.3l-1.3-2.3c-.7-1.3-.4-2.9.7-3.8l1.8-1.4C9.1 26.1 9 25 9 24s.1-2.1.3-3.1l-1.8-1.5c-1.1-.9-1.4-2.5-.7-3.8l1.3-2.3c.7-1.3 2.3-1.8 3.7-1.3l2.1.8c1.6-1.4 3.4-2.5 5.4-3.1l.4-2.2c.3-1.4 1.5-2.5 3-2.5h2.6zm.1 1.8h-2.6c-.5 0-.9.4-1 .8l-.4 2.2c-.1.7-.6 1.3-1.4 1.6-1.7.6-3.3 1.5-4.6 2.7-.6.5-1.3.7-2 .4l-2.1-.8c-.5-.2-1 0-1.2.4l-1.3 2.3c-.2.4-.1 1 .2 1.3l1.8 1.4c.6.5.8 1.2.7 2-.4 1.1-.5 2-.5 2.9 0 .9.1 1.8.3 2.7.2.7-.1 1.5-.7 2l-1.8 1.4c-.4.3-.5.8-.2 1.3l1.3 2.3c.2.4.8.6 1.2.4l2.1-.8c.3-.1.5-.2.8-.2.5 0 1 .2 1.4.5 1.4 1.2 2.9 2.1 4.6 2.7.7.2 1.2.8 1.4 1.6l.3 2c.1.6.5 1 1 1h2.6c.5 0 .9-.4 1-.8l.4-2.2c.1-.7.6-1.3 1.4-1.6 1.7-.6 3.3-1.5 4.6-2.7.6-.5 1.3-.7 2-.4l2.1.8c.5.2 1 0 1.2-.4l1.3-2.3c.2-.4.1-1-.2-1.3l-1.8-1.5c-.6-.5-.8-1.2-.7-2 .2-.9.3-1.8.3-2.7 0-.9-.1-1.8-.3-2.7-.2-.7.1-1.5.7-2l1.8-1.4c.4-.3.5-.8.2-1.3L38 14.1c-.2-.4-.8-.6-1.2-.4l-2.1.8c-.7.3-1.5.1-2-.4-1.4-1.2-2.9-2.1-4.6-2.7-.7-.2-1.2-.8-1.4-1.6l-.3-2c-.1-.6-.5-1-1-1zM24 16c4.4 0 8 3.6 8 8s-3.6 8-8 8-8-3.6-8-8 3.6-8 8-8zm0 2c-3.3 0-6 2.7-6 6s2.7 6 6 6 6-2.7 6-6-2.7-6-6-6z"/></svg>