<svg xmlns="http://www.w3.org/2000/svg" width="48" height="48" viewBox="0 0 48 48"> <path fill="#FFF" fill-rule="evenodd" d="M26.7 20.9c.4.4.4 1 0 1.4-.4.4-1 .4-1.4 0-1.6-1.6-4.1-1.6-5.7 0l-7.8 7.8c-.8.8-1.2 1.8-1.2 2.8 0 1 .4 2.1 1.2 2.8l.5.5c1.6 1.6 4.1 1.6 5.7 0l4.5-4.5c.4-.4 1-.4 1.4 0 .4.4.4 1 0 1.4l-4.5 4.5c-1.3 1.3-2.8 1.8-4.3 1.8s-3.1-.6-4.2-1.8l-.5-.5c-1.1-1.1-1.8-2.6-1.8-4.2s.6-3.1 1.8-4.2l7.8-7.8c2.3-2.3 6.1-2.3 8.5 0zm6.2-12.3c1.6 0 3.1.6 4.2 1.8l.5.5c2.3 2.3 2.3 6.1 0 8.5L29.9 27c-1.1 1.2-2.6 1.8-4.2 1.8s-3.1-.6-4.2-1.8c-.4-.4-.4-1 0-1.4.4-.4 1-.4 1.4 0 1.5 1.5 4.1 1.5 5.7 0l7.8-7.8c1.6-1.6 1.6-4.1 0-5.7l-.5-.5c-.9-.6-1.9-1-3-1s-2.1.4-2.8 1.2l-4.5 4.5c-.4.4-1 .4-1.4 0-.4-.4-.4-1 0-1.4l4.5-4.5c1.1-1.1 2.6-1.8 4.2-1.8z"/></svg>