<svg xmlns="http://www.w3.org/2000/svg" width="48" height="48" viewBox="0 0 48 48"> <path fill="#FFF" fill-rule="evenodd" d="M28.7 20.8c0-.3-.1-.6-.3-.8L13.3 6.1c-1.7-1.5-4.3-1.5-5.9.2-1.6 1.6-1.7 4.2-.1 5.9l13.9 15.1c.2.2.5.3.7.3h.1c.3 0 .6-.2.8-.4l.1-.1c1.4-2.2 3.3-4 5.5-5.5.2-.2.3-.5.3-.8zM8.8 7.7c.5-.5 1-.7 1.6-.7.6 0 1.1.2 1.6.6l2.3 2.1-3.4 3.4-2.1-2.3c-.9-.9-.9-2.3 0-3.1zM3.7 20.3c.1 1.9.5 3.7 1.1 5.4.6 1.7 1.5 3.3 2.5 4.7 2.1 2.8 5 5 8.2 6.3l.427.206c2.291 1.063 4.838 1.594 7.473 1.594.8 0 1.5.8 1.5 1.6s-.7 1.5-1.5 1.5c-3.1 0-6.2-.7-9-2l-.06-.016c-.046-.028-.065-.084-.14-.084l-.1-.1c-3.4-2-6.2-4.9-8-8.2-.9-1.7-1.6-3.5-2-5.3-.4-1.9-.5-3.8-.4-5.6zm27.751 4.89l.249.01c1.5.1 2.9.8 3.8 1.9 2.9 3.5 3.2 6.7 3 8.7-.1.6-.5 1.2-1.1 1.5-.2.1-.5.2-.8.2-.4 0-.8-.1-1.1-.3-.9-.6-2.5-1.3-5-1.8l-.248-.072c-1.395-.44-2.59-1.406-3.252-2.728-.9-1.9-.6-4.2.8-5.7 1-1.1 2.4-1.8 3.9-1.7zm.149 2.01c-.9-.1-1.8.3-2.4 1-.8 1-1.1 2.4-.5 3.5.4.9 1.1 1.5 2.1 1.7 2.8.5 4.7 1.4 5.7 2.1.2-1.6-.1-4.1-2.6-7.2-.5-.7-1.4-1.1-2.3-1.1zM15.7 11.1l10.4 9.6c-1.6 1.2-3.1 2.6-4.3 4.3l-9.6-10.4 3.5-3.5z"/></svg>