<svg xmlns="http://www.w3.org/2000/svg" width="48" height="48" viewBox="0 0 48 48"> <path fill="#FFF" fill-rule="evenodd" d="M24 29.7c1.9 0 3.5-1.6 3.5-3.5 0-.4-.1-.7-.1-1 0-.2-.1-.3-.1-.5l-.1-.3-1.8-5.4c-.2-.6-.8-1.1-1.4-1.1-.7 0-1.2.4-1.4 1.1l-1.7 5.6-.1.2v.1l-.1.2c-.1.3-.2.6-.2 1 0 2.1 1.6 3.6 3.5 3.6zm3.1 6c1.4 0 2.5 1.1 2.5 2.5s-1.1 2.5-2.5 2.5h-6c-1.4 0-2.5-1.1-2.5-2.5s1.1-2.5 2.5-2.5zm-3-28.5l.445.005c4.444.1 8.768 1.698 12.155 4.795l.7.7c0 .1.1.2.1.2 3.5 3.6 5.5 8.3 5.6 13.3 0 4.6-1.7 9.1-4.8 12.6-.4.4-.9.7-1.5.7s-1.1-.2-1.5-.6l-1.5-1.5c-.4-.4-.4-1 0-1.4.4-.4 1-.4 1.4 0l1.6 1.5c2.5-2.9 4-6.5 4.2-10.3h-3c-.6 0-1-.4-1-1s.4-1 1-1h3c-.3-3.8-1.8-7.5-4.3-10.3L34.6 17c-.2.2-.4.3-.7.3-.3 0-.5-.1-.7-.3-.4-.4-.4-1 0-1.4l2.1-2.1c-2.9-2.5-6.5-4-10.3-4.2v3c0 .6-.4 1-1 1s-1-.4-1-1v-3c-.4.1-.7.1-1 .1-3.5.4-6.8 1.9-9.3 4.2l2.1 2.1c.4.4.4 1 0 1.4-.2.2-.4.3-.7.3-.3 0-.5-.1-.7-.3L11.3 15c-2.3 2.6-3.8 5.9-4.2 9.5v.7H10c.6 0 1 .4 1 1s-.4 1-1 1H7c.3 3.8 1.7 7.4 4.3 10.3l1.5-1.5c.4-.4 1-.4 1.4 0 .4.4.4 1 0 1.4l-1.5 1.5c-.4.4-.9.6-1.4.6h-.1l-.187-.042c-.436-.111-.863-.308-1.213-.658C6.7 35.3 5 30.9 5 26.2v-.204c.004-.552.033-1.174.3-1.796.4-4.5 2.4-8.5 5.4-11.5l.304-.297C13.87 9.663 17.652 7.783 21.9 7.3c.8-.1 1.5-.1 2.2-.1zm3 30.6h-6c-.3 0-.5.2-.5.5s.2.5.5.5h6c.3 0 .5-.3.5-.5 0-.3-.2-.5-.5-.5zM24 21.1l1.2 3.9.2.7c0 .1.1.3.1.4 0 .8-.7 1.5-1.5 1.5s-1.5-.7-1.5-1.5c0-.16 0-.256.051-.39l.049-.11 1.4-4.5z"/></svg>